<svg viewBox="0 0 32.311 32.31" xmlns="http://www.w3.org/2000/svg"><path d="M28.249 2a2.062 2.062 0 0 1 2.06 2.059V28.25a2.062 2.062 0 0 1-2.06 2.06H4.06A2.063 2.063 0 0 1 2 28.25V4.057a2.063 2.063 0 0 1 2.06-2.059h24.189m0-2H4.06A4.059 4.059 0 0 0 0 4.057v24.191a4.06 4.06 0 0 0 4.06 4.06h24.189a4.06 4.06 0 0 0 4.06-4.06V4.057a4.059 4.059 0 0 0-4.06-4.059Z" fill="#c44848" class="fill-000000"></path><path d="M23.911 24.91a1 1 0 0 1-.707-.293L7.693 9.107a1 1 0 0 1 1.414-1.414l15.511 15.51a1 1 0 0 1-.707 1.707Z" fill="#c44848" class="fill-000000"></path><path d="M8.4 24.91a1 1 0 0 1-.707-1.707l15.511-15.51a1 1 0 0 1 1.414 1.414L9.107 24.617a1 1 0 0 1-.707.293Z" fill="#c44848" class="fill-000000"></path></svg>